<svg width="24" height="24" viewBox="0 0 24 24" fill="none" xmlns="http://www.w3.org/2000/svg">
  <path d="M12 2v10l4 4m-4-4H4" stroke="currentColor" stroke-width="2" stroke-linecap="round" stroke-linejoin="round"/>
  <path d="M19.07 4.93A10.002 10.002 0 0 0 12 2a10.002 10.002 0 0 0-7.07 2.93A10.002 10.002 0 0 0 2 12a10.002 10.002 0 0 0 2.93 7.07A10.002 10.002 0 0 0 12 22a10.002 10.002 0 0 0 7.07-2.93A10.002 10.002 0 0 0 22 12a10.002 10.002 0 0 0-2.93-7.07z" stroke="currentColor" stroke-width="2" stroke-linecap="round" stroke-linejoin="round"/>
</svg>
